<svg version="1.1" xmlns="http://www.w3.org/2000/svg" xmlns:xlink="http://www.w3.org/1999/xlink" x="0px" y="0px" viewBox="0 0 32 32" xml:space="preserve" width="32" height="32"><g class="nc-icon-wrapper" fill="#444444"><path data-cap="butt" data-color="color-2" fill="none" stroke="#444444" stroke-width="2" stroke-miterlimit="10" d="M4,13L4,13C4,7.5,8.5,3,14,3h4 c5.5,0,10,4.5,10,10" stroke-linejoin="miter" stroke-linecap="butt"></path> <path data-cap="butt" data-color="color-2" fill="none" stroke="#444444" stroke-width="2" stroke-miterlimit="10" d="M28,24L28,24c0,2.8-2.2,5-5,5H9 c-2.8,0-5-2.2-5-5v0" stroke-linejoin="miter" stroke-linecap="butt"></path> <path fill="none" stroke="#444444" stroke-width="2" stroke-linecap="square" stroke-miterlimit="10" d="M17,17H3c-1.1,0-2-0.9-2-2 v0c0-1.1,0.9-2,2-2h26c1.1,0,2,0.9,2,2v0c0,1.1-0.9,2-2,2h-4l-4,3L17,17z" stroke-linejoin="miter"></path> <path fill="none" stroke="#444444" stroke-width="2" stroke-linecap="square" stroke-miterlimit="10" d="M27.5,17 c1.9,0,3.5,1.6,3.5,3.5v0c0,1.9-1.6,3.5-3.5,3.5h-23C2.6,24,1,22.4,1,20.5v0C1,18.6,2.6,17,4.5,17" stroke-linejoin="miter"></path> <line fill="none" stroke="#444444" stroke-width="2" stroke-linecap="square" stroke-miterlimit="10" x1="11" y1="10" x2="10" y2="9" stroke-linejoin="miter"></line> <line fill="none" stroke="#444444" stroke-width="2" stroke-linecap="square" stroke-miterlimit="10" x1="15" y1="8" x2="16" y2="7" stroke-linejoin="miter"></line> <line fill="none" stroke="#444444" stroke-width="2" stroke-linecap="square" stroke-miterlimit="10" x1="22" y1="9" x2="22" y2="8" stroke-linejoin="miter"></line></g></svg>